<?xml version="1.0" encoding="UTF-8"?>
<svg width="230px" height="33px" viewBox="0 0 230 33" version="1.1" xmlns="http://www.w3.org/2000/svg" xmlns:xlink="http://www.w3.org/1999/xlink">
    <!-- Generator: Sketch 3.8.3 (29802) - http://www.bohemiancoding.com/sketch -->
    <title>Untitled</title>
    <desc>Created with Sketch.</desc>
    <defs></defs>
    <g id="Page-1" stroke="none" stroke-width="1" fill="none" fill-rule="evenodd">
        <g id="HOME" transform="translate(197.000000, 0.000000)" fill="#000000">
            <g id="Layer_1">
                <path d="M32.348,11.401 L17.348,0.492 C16.997,0.236 16.522,0.236 16.171,0.492 L1.171,11.401 C0.725,11.725 0.626,12.351 0.951,12.797 C1.276,13.244 1.9,13.341 2.348,13.018 L4.322,11.582 L4.322,25.3 C4.322,25.853 4.77,26.3 5.322,26.3 L13.397,26.3 C13.949,26.3 14.397,25.853 14.397,25.3 L14.397,15.907 L19.122,15.907 L19.122,25.3 C19.122,25.853 19.57,26.3 20.122,26.3 L28.197,26.3 C28.749,26.3 29.197,25.853 29.197,25.3 L29.197,11.583 L31.171,13.019 C31.349,13.148 31.555,13.21 31.758,13.21 C32.067,13.21 32.372,13.067 32.568,12.798 C32.894,12.352 32.794,11.726 32.348,11.401 L32.348,11.401 Z M27.197,24.301 L21.122,24.301 L21.122,14.908 C21.122,14.355 20.674,13.908 20.122,13.908 L13.397,13.908 C12.845,13.908 12.397,14.355 12.397,14.908 L12.397,24.301 L6.322,24.301 L6.322,10.128 L16.76,2.537 L27.198,10.128 L27.198,24.301 L27.197,24.301 Z" id="Shape"></path>
            </g>
        </g>
        <g id="CAMERA" fill="#000000">
            <g id="Layer_1">
                <path d="M24.628,8.00712 L23.915,2.40768 C23.834,1.77276 23.417,1.3068 22.929,1.3068 L9.93,1.3068 C9.442,1.3068 9.025,1.77276 8.944,2.409 L8.233,8.00712 L1.432,8.00712 C0.88,8.00712 0.432,8.59716 0.432,9.32712 L0.432,31.6668 C0.432,32.39676 0.88,32.9868 1.432,32.9868 L31.432,32.9868 C31.984,32.9868 32.432,32.39676 32.432,31.6668 L32.432,9.32712 C32.432,8.59716 31.984,8.00712 31.432,8.00712 L24.628,8.00712 L24.628,8.00712 Z M30.432,30.3468 L2.432,30.3468 L2.432,10.64712 L9.079,10.64712 C9.567,10.64712 9.984,10.18116 10.065,9.54492 L10.776,3.9468 L22.083,3.9468 L22.796,9.54624 C22.877,10.18116 23.294,10.64712 23.782,10.64712 L30.432,10.64712 L30.432,30.3468 L30.432,30.3468 Z" id="Shape"></path>
                <path d="M16.432,11.06688 C13.123,11.06688 10.432,14.5926 10.432,18.92484 C10.432,23.25708 13.123,26.7828 16.432,26.7828 C19.741,26.7828 22.432,23.25708 22.432,18.92484 C22.432,14.5926 19.741,11.06688 16.432,11.06688 L16.432,11.06688 Z M16.432,24.1428 C14.226,24.1428 12.432,21.80244 12.432,18.92484 C12.432,16.04724 14.226,13.70688 16.432,13.70688 C18.638,13.70688 20.432,16.04724 20.432,18.92484 C20.432,21.80244 18.638,24.1428 16.432,24.1428 L16.432,24.1428 Z" id="Shape"></path>
            </g>
        </g>
        <g id="CART" transform="translate(33.000000, 0.000000)" fill="#000000">
            <g id="Layer_1">
                <path d="M30.941,1.15373077 L24.941,2.62730769 C24.471,2.74280769 24.131,3.26446154 24.131,3.87242308 L24.131,8.99630769 L1.131,8.99630769 C0.76,8.99630769 0.419,9.25776923 0.246,9.67407692 C0.073,10.0903846 0.097,10.5955385 0.307,10.9826538 L5.835,21.2063077 C6.022,21.5515385 6.33,21.7584231 6.659,21.7584231 L22.943,21.7584231 L22.949,24.5748462 L9.132,24.5748462 C9.116,24.5748462 9.103,24.585 9.087,24.5862692 C9.057,24.585 9.03,24.5748462 9,24.5748462 C7.245,24.5748462 5.817,26.433 5.817,28.7176154 C5.817,31.0022308 7.245,32.8616538 9,32.8616538 C10.754,32.8616538 12.182,31.0022308 12.182,28.7176154 C12.182,28.149 12.093,27.6070385 11.933,27.1133077 L20.154,27.1133077 C19.994,27.6070385 19.905,28.149 19.905,28.7176154 C19.905,31.0022308 21.333,32.8616538 23.087,32.8616538 C24.841,32.8616538 26.269,31.0022308 26.269,28.7176154 C26.269,27.3430385 25.746,26.1309231 24.952,25.377 L24.945,21.7596923 L25.133,21.7596923 C25.686,21.7596923 26.133,21.1923462 26.133,20.4904615 L26.133,10.2668077 C26.133,10.2312692 26.119,10.2020769 26.117,10.1665385 C26.119,10.1322692 26.133,10.1018077 26.133,10.0662692 L26.133,4.91953846 L31.323,3.64396154 C31.865,3.51196154 32.219,2.84561538 32.114,2.15642308 C32.009,1.46976923 31.487,1.01411538 30.941,1.15373077 L30.941,1.15373077 Z M9,30.3231923 C8.348,30.3231923 7.817,29.6035385 7.817,28.7176154 C7.817,27.8316923 8.347,27.1133077 9,27.1133077 C9.651,27.1133077 10.182,27.8316923 10.182,28.7176154 C10.182,29.6035385 9.651,30.3231923 9,30.3231923 L9,30.3231923 Z M23.087,30.3231923 C22.436,30.3231923 21.905,29.6035385 21.905,28.7176154 C21.905,27.8316923 22.435,27.1133077 23.087,27.1133077 C23.739,27.1133077 24.269,27.8316923 24.269,28.7176154 C24.269,29.6035385 23.738,30.3231923 23.087,30.3231923 L23.087,30.3231923 Z M3.031,11.5360385 L24.132,11.5360385 L24.132,19.2212308 L7.187,19.2212308 L3.031,11.5360385 L3.031,11.5360385 Z" id="Shape"></path>
            </g>
        </g>
        <g id="CHAT" transform="translate(66.000000, 0.000000)" fill="#000000">
            <g id="Layer_1">
                <path d="M6.526,27.7798889 C6.594,27.8312222 6.61,27.8654444 6.622,27.9448889 C6.716,28.5694444 6.125,29.9285556 5.662,30.6692222 C5.453,31.0041111 5.399,31.4477778 5.52,31.8413333 C5.641,32.2348889 5.918,32.527 6.256,32.6113333 C6.534,32.6797778 6.8,32.7103333 7.054,32.7103333 C8.612,32.7103333 9.703,31.5345556 10.395,30.7902222 C10.543,30.6301111 10.734,30.4235556 10.86,30.3135556 C12.328,30.7254444 14.589,31.0517778 16.023,31.0517778 C16.821,31.0517778 17.62,30.9821111 18.407,30.8611111 C19.605,31.3353333 20.907,31.6042222 22.272,31.6042222 C23.219,31.6042222 24.631,31.4074444 25.639,31.1422222 C25.692,31.1984444 25.747,31.262 25.808,31.3267778 C26.287,31.8437778 27.091,32.7103333 28.258,32.7103333 C28.448,32.7103333 28.647,32.6871111 28.856,32.6357778 C29.193,32.5514444 29.47,32.2605556 29.592,31.867 C29.713,31.4734444 29.659,31.0285556 29.45,30.6948889 C29.167,30.239 28.908,29.5985556 28.875,29.2905556 C31.32,27.3863333 32.777,24.3515556 32.777,21.1468889 C32.777,19.173 32.214,17.3311111 31.255,15.7544444 C31.125,7.56066667 24.347,0.932555556 16.022,0.932555556 C7.616,0.932555556 0.777,7.68777778 0.777,15.9915556 C0.778,20.6421111 2.927,25.0482222 6.526,27.7798889 L6.526,27.7798889 Z M27.73,27.2824444 C27.284,27.621 26.999,28.1318889 26.906,28.7588889 C26.883,28.9128889 26.873,29.0681111 26.875,29.2233333 C26.565,28.9141111 26.211,28.6403333 25.76,28.6403333 C25.679,28.6403333 25.529,28.6635556 25.449,28.6867778 C24.602,28.9422222 23.147,29.1585556 22.272,29.1585556 C17.582,29.1585556 13.766,25.5652222 13.766,21.1456667 C13.766,16.7285556 17.581,13.134 22.272,13.134 C26.963,13.134 30.778,16.7273333 30.778,21.1456667 C30.778,23.5754444 29.667,25.8121111 27.73,27.2824444 L27.73,27.2824444 Z M16.023,3.377 C22.255,3.377 27.481,7.502 28.885,13.0325556 C27.078,11.5707778 24.777,10.6907778 22.272,10.6907778 C16.479,10.6907778 11.766,15.3816667 11.766,21.1468889 C11.766,24.035 12.949,26.6542222 14.858,28.5474444 C13.606,28.435 12.114,28.1758889 11.143,27.8825556 C10.299,27.6258889 9.649,28.3335556 9.072,28.9556667 C8.833,29.2135556 8.607,29.4482222 8.384,29.645 C8.582,28.9568889 8.694,28.2101111 8.589,27.5073333 C8.475,26.741 8.126,26.1164444 7.58,25.7021111 C4.573,23.4202222 2.777,19.789 2.777,15.9903333 C2.778,9.03588889 8.72,3.377 16.023,3.377 L16.023,3.377 Z" id="Shape"></path>
            </g>
        </g>
        <g id="BLUETOOTH" transform="translate(99.000000, 0.000000)" fill="#000000">
            <g id="Layer_1">
                <path d="M32.2166087,9.285 C32.6054348,9.096 32.8364348,8.786 32.8321304,8.455 C32.8278261,8.125 32.591087,7.817 32.1979565,7.634 L17.8501304,0.92 C17.4096522,0.714 16.842913,0.694 16.3751739,0.867 C15.9088696,1.041 15.6161739,1.381 15.6161739,1.75 L15.6161739,14.9 L14.0737826,15.648 L3.531,10.457 C2.88247826,10.138 1.9886087,10.245 1.53091304,10.696 C1.07321739,11.147 1.22673913,11.771 1.87382609,12.09 L11.5672174,16.863 L1.88243478,21.559 C1.23247826,21.874 1.07178261,22.498 1.52373913,22.952 C1.97569565,23.406 2.871,23.517 3.5223913,23.202 L14.0608696,18.091 L15.6161739,18.857 L15.6161739,31.75 C15.6161739,32.115 15.9002609,32.45 16.3608261,32.626 C16.5760435,32.709 16.8127826,32.75 17.0509565,32.75 C17.3192609,32.75 17.5861304,32.698 17.82,32.595 L32.1678261,26.248 C32.571,26.069 32.8206522,25.762 32.8335652,25.428 C32.8450435,25.095 32.6183478,24.78 32.2266522,24.587 L18.4857391,17.82 L18.4857391,15.944 L32.2166087,9.285 L32.2166087,9.285 Z M18.4843043,3.626 L28.854913,8.479 L18.4843043,13.508 L18.4843043,3.626 L18.4843043,3.626 Z M28.8204783,25.358 L18.4843043,29.93 L18.4843043,20.27 L28.8204783,25.358 L28.8204783,25.358 Z" id="Shape"></path>
            </g>
        </g>
        <g id="BATTERY" transform="translate(132.000000, 9.000000)" fill="#231F20">
            <g id="Layer_1">
                <path d="M30.907,1.763 C30.907,1.21 30.459,0.763 29.907,0.763 L1.64,0.763 C1.088,0.763 0.64,1.21 0.64,1.763 L0.64,13.763 C0.64,14.316 1.088,14.763 1.64,14.763 L29.907,14.763 C30.459,14.763 30.907,14.316 30.907,13.763 L30.907,11.593 L31.64,11.593 C32.192,11.593 32.64,11.146 32.64,10.593 L32.64,5.226 C32.64,4.673 32.192,4.226 31.64,4.226 L30.907,4.226 L30.907,1.763 L30.907,1.763 Z M28.907,12.763 L2.64,12.763 L2.64,2.763 L28.907,2.763 L28.907,12.763 L28.907,12.763 Z" id="Shape"></path>
                <path d="M5.725,11.759 C6.277,11.759 6.725,11.312 6.725,10.759 L6.725,4.767 C6.725,4.214 6.277,3.767 5.725,3.767 C5.173,3.767 4.725,4.214 4.725,4.767 L4.725,10.759 C4.725,11.312 5.173,11.759 5.725,11.759 L5.725,11.759 Z" id="Shape"></path>
                <path d="M9.737,11.759 C10.289,11.759 10.737,11.312 10.737,10.759 L10.737,4.767 C10.737,4.214 10.289,3.767 9.737,3.767 C9.185,3.767 8.737,4.214 8.737,4.767 L8.737,10.759 C8.737,11.312 9.185,11.759 9.737,11.759 L9.737,11.759 Z" id="Shape"></path>
                <path d="M13.75,11.759 C14.302,11.759 14.75,11.312 14.75,10.759 L14.75,4.767 C14.75,4.214 14.302,3.767 13.75,3.767 C13.198,3.767 12.75,4.214 12.75,4.767 L12.75,10.759 C12.75,11.312 13.198,11.759 13.75,11.759 L13.75,11.759 Z" id="Shape"></path>
                <path d="M17.762,11.759 C18.314,11.759 18.762,11.312 18.762,10.759 L18.762,4.767 C18.762,4.214 18.314,3.767 17.762,3.767 C17.21,3.767 16.762,4.214 16.762,4.767 L16.762,10.759 C16.762,11.312 17.21,11.759 17.762,11.759 L17.762,11.759 Z" id="Shape"></path>
            </g>
        </g>
        <g id="BELL" transform="translate(165.000000, 0.000000)" fill="#000000">
            <g id="Layer_1">
                <path d="M20.0037391,27.98 C19.2103043,27.98 18.5689565,28.427 18.5689565,28.98 C18.5689565,29.906 17.3465217,30.659 15.8457391,30.659 C14.3449565,30.659 13.1225217,29.906 13.1225217,28.98 C13.1225217,28.427 12.4811739,27.98 11.6877391,27.98 C10.8943043,27.98 10.2529565,28.427 10.2529565,28.98 C10.2529565,31.008 12.7623913,32.659 15.8457391,32.659 C18.929087,32.659 21.4385217,31.009 21.4385217,28.98 C21.4385217,28.428 20.7971739,27.98 20.0037391,27.98 L20.0037391,27.98 Z" id="Shape"></path>
                <path d="M30.1935652,17.858 L27.9653478,17.858 L27.963913,14.071 C27.8893043,10.131 23.2147826,6.877 17.2805217,6.418 L17.2805217,5.64 C18.7181739,5.26 19.7397391,4.331 19.7397391,3.243 C19.7397391,1.818 17.9921739,0.659 15.8457391,0.659 C13.6993043,0.659 11.9517391,1.818 11.9517391,3.243 C11.9517391,4.331 12.9733043,5.26 14.4109565,5.64 L14.4109565,6.418 C8.50108696,6.876 3.828,10.115 3.72756522,14.03 C3.72613043,14.057 3.72613043,16.453 3.72613043,17.858 L1.49791304,17.858 C0.704478261,17.858 0.0631304348,18.305 0.0631304348,18.858 C0.0631304348,23.535 2.343,26.217 6.31591304,26.217 L25.3726957,26.217 C31.626913,26.217 31.626913,20.678 31.626913,18.858 C31.6283478,18.306 30.987,17.858 30.1935652,17.858 L30.1935652,17.858 Z M15.8457391,2.659 C16.401,2.659 16.8701739,2.927 16.8701739,3.243 C16.8701739,3.559 16.401,3.827 15.8457391,3.827 C15.2904783,3.827 14.8213043,3.559 14.8213043,3.243 C14.8213043,2.927 15.2904783,2.659 15.8457391,2.659 L15.8457391,2.659 Z M6.59713043,14.073 C6.67891304,10.922 10.8268696,8.357 15.8457391,8.357 C20.8846957,8.357 25.034087,10.932 25.0943478,14.085 L25.0957826,17.858 L6.59569565,17.858 C6.59569565,16.484 6.59569565,14.168 6.59713043,14.073 L6.59713043,14.073 Z M25.3741304,24.218 L6.31591304,24.218 C3.79069565,24.218 3.14504348,21.476 2.98434783,19.859 L28.7315217,19.859 C28.5564783,22.901 27.5248696,24.218 25.3741304,24.218 L25.3741304,24.218 Z" id="Shape"></path>
            </g>
        </g>
    </g>
</svg>